<svg id="Layer_1" data-name="Layer 1" xmlns="http://www.w3.org/2000/svg" viewBox="0 0 512 512"><defs><style>.cls-1{fill:#1d1d1b;}</style></defs><path class="cls-1" d="M184.77,115.94v66.9h60.64v32.25H184.77V340.71c0,28.88,8.18,45.25,31.76,45.25a94.38,94.38,0,0,0,24.55-2.89L243,414.84c-8.19,3.37-21.18,5.77-37.55,5.77-19.73,0-35.61-6.26-45.72-17.81-12-12.51-16.37-33.21-16.37-60.64V215.09h-36.1V182.84h36.1V127Z"/><path class="cls-1" d="M344.08,115.94v66.9h60.65v32.25H344.08V340.71c0,28.88,8.18,45.25,31.77,45.25a94.44,94.44,0,0,0,24.55-2.89l1.92,31.77c-8.18,3.37-21.18,5.77-37.54,5.77-19.74,0-35.62-6.26-45.73-17.81-12-12.51-16.36-33.21-16.36-60.64V215.09h-36.1V182.84h36.1V127Z"/></svg>