<svg xmlns="http://www.w3.org/2000/svg" width="56" height="56" viewBox="0 0 56 56">
    <g fill="none" fill-rule="evenodd">
        <g>
            <g>
                <g>
                    <path d="M0 0H56V56H0z" transform="translate(-851.000000, -354.000000) translate(851.000000, 354.000000)"/>
                </g>
                <g transform="translate(-851.000000, -354.000000) translate(851.000000, 354.000000) translate(4.129219, 8.000000)">
                    <path fill="#FFF" stroke="#221E1F" stroke-width="2" d="M9.906 10.176C8.36 8.326 7.587 6.471 7.587 4.615c.071.002 5.698-.887 10.485 2.808-.047.01 15.333-.724 20.854 7.581 4.122 6.578.387 12.73-2.42 14.797l-2.25 7.734c-.124.427-.515.72-.96.72h-4.901c-.553 0-1-.447-1-1 0-.068.007-.137.02-.205l.596-2.84h0c-2.264 1.003-5.685 1.003-10.263 0-.018.034-.378 1.15-1.08 3.35-.132.414-.517.696-.952.696h-5.298c-.553 0-1-.448-1-1 0-.088.011-.174.034-.258l1.407-5.274h0c-1.905-1.139-3.518-2.717-4.84-4.733.005-.002-3.21.009-4.677-2.797-1.467-2.805-2.086-6.136 0-6.55 4.666-.715 2.99-1.765 4.995-4.462 1.336-1.799 2.526-2.8 3.569-3.006z"/>
                    <circle cx="26.385" cy="7.23" r="6.23" fill="#D8D8D8" stroke="#221E1F" stroke-width="2"/>
                    <path stroke="#221E1F" stroke-linecap="round" stroke-width="2" d="M40.88 17.351c3.216-1.088 4.347-2.69 3.394-4.804-1.43-3.172-4.751-1.22-1.95 1.504 1.869 1.816 3.76 1.562 5.676-.763"/>
                    <circle cx="11.443" cy="15.423" r="1.928" fill="#221E1F"/>
                </g>
            </g>
        </g>
    </g>
</svg>
