<svg xmlns="http://www.w3.org/2000/svg" width="133.632" height="76.43" viewBox="0 0 133.632 76.43">
  <g id="Group_1" data-name="Group 1" transform="translate(-100 -57.195)">
    <path id="Path_1" data-name="Path 1" d="M116.081,61.514l-3.8,2.858a6.217,6.217,0,0,0-1.617-1.722,3.5,3.5,0,0,0-1.985-.554q-1.945,0-1.947,1.364a1.24,1.24,0,0,0,.413.961,5.284,5.284,0,0,0,1.471.794l2.511,1.039a11.6,11.6,0,0,1,4.214,2.678,5.419,5.419,0,0,1,1.37,3.782,5.921,5.921,0,0,1-2.261,4.886,8.927,8.927,0,0,1-5.735,1.8,10.373,10.373,0,0,1-5.223-1.3,8.783,8.783,0,0,1-3.47-3.509l3.833-2.857a6.008,6.008,0,0,0,4.859,2.761q2.244,0,2.245-1.558a1.268,1.268,0,0,0-.462-1.072,8.929,8.929,0,0,0-1.753-.909l-2.245-.973q-5.518-2.372-5.519-6.461a5.621,5.621,0,0,1,2.132-4.593,8.413,8.413,0,0,1,5.5-1.739q5.255,0,7.468,4.319" transform="translate(-0.017 0)" fill="#484848"/>
    <path id="Path_2" data-name="Path 2" d="M257.446,62.786H250.9V79.738h-5.684V62.786h-6.544v-5.2h18.771Z" transform="translate(-120.144 -0.336)" fill="#484848"/>
    <path id="Path_3" data-name="Path 3" d="M372.477,77.59h-7.834l-.794,1.817h-6.112L367.651,57.2h1.817l9.915,22.206H373.27Zm-3.9-9.617L366.66,73.03h3.8Z" transform="translate(-223.296 -0.005)" fill="#484848"/>
    <path id="Path_4" data-name="Path 4" d="M552.865,79.4l-4.924-6.9H545.6v6.9h-5.685V57.195h8.559a8.836,8.836,0,0,1,6.047,2.087,7.591,7.591,0,0,1-1.058,11.877l5.752,8.244ZM545.6,67.458h2.909a2.536,2.536,0,0,0,1.9-.724,2.588,2.588,0,0,0,.712-1.9,2.441,2.441,0,0,0-2.61-2.592H545.6Z" transform="translate(-381.125 0)" fill="#484848"/>
    <path id="Path_5" data-name="Path 5" d="M100.014,268.506h12.25v3.02H103v5.516h9.266v2.984H103v7.6h9.266v2.984h-12.25Z" transform="translate(-0.012 -183.073)" fill="#484848"/>
    <path id="Path_6" data-name="Path 6" d="M218.544,268.51H223.9q6.368,0,9.472,3.365a11.015,11.015,0,0,1,3.107,7.686,10.8,10.8,0,0,1-3.211,7.7q-3.21,3.348-9.332,3.349h-5.4Zm3.019,2.948v16.169h.173a31.376,31.376,0,0,0,5.066-.3A8.426,8.426,0,0,0,230.027,286a7.378,7.378,0,0,0,2.431-2.715,7.8,7.8,0,0,0,.9-3.72,7.888,7.888,0,0,0-1.44-4.614,7.116,7.116,0,0,0-3.444-2.778,16.6,16.6,0,0,0-5.385-.711Z" transform="translate(-102.703 -183.077)" fill="#484848"/>
    <rect id="Rectangle_1" data-name="Rectangle 1" width="2.984" height="22.101" transform="translate(137.213 85.432)" fill="#484848"/>
    <path id="Path_7" data-name="Path 7" d="M427.031,268.506h13.513v3.02h-5.272v19.082h-2.987V271.525h-5.255Z" transform="translate(-283.33 -183.073)" fill="#484848"/>
    <rect id="Rectangle_2" data-name="Rectangle 2" width="2.984" height="22.101" transform="translate(160.564 85.432)" fill="#484848"/>
    <path id="Path_8" data-name="Path 8" d="M605.022,274.923a10.893,10.893,0,0,1,3.607-8.2,12.172,12.172,0,0,1,8.672-3.415,11.856,11.856,0,0,1,8.52,3.442,10.962,10.962,0,0,1,3.573,8.172,11.41,11.41,0,0,1-3.528,8.469,12.5,12.5,0,0,1-17.29-.026,11.385,11.385,0,0,1-3.555-8.443m21.164.14a8.166,8.166,0,0,0-2.637-6.161,9.066,9.066,0,0,0-6.489-2.5,8.656,8.656,0,0,0-6.273,2.55,8.24,8.24,0,0,0-2.609,6.116,8.063,8.063,0,0,0,2.68,6.127,9.252,9.252,0,0,0,6.567,2.5,8.489,8.489,0,0,0,6.166-2.555,8.243,8.243,0,0,0,2.595-6.077" transform="translate(-437.535 -178.571)" fill="#484848"/>
    <path id="Path_9" data-name="Path 9" d="M815.587,261.891l16.34,16.8V262.775h3.019V285.9L818.6,269.176v15.7h-3.017Z" transform="translate(-619.962 -177.342)" fill="#484848"/>
    <path id="Path_10" data-name="Path 10" d="M1001.306,266.463l-2.446,1.959a9.891,9.891,0,0,0-1.757-1.5,4.33,4.33,0,0,0-2.276-.493,4.381,4.381,0,0,0-2.64.735,2.25,2.25,0,0,0-1.013,1.895,2.3,2.3,0,0,0,.885,1.772,12.13,12.13,0,0,0,3.014,1.686,21.38,21.38,0,0,1,3.316,1.7,8.38,8.38,0,0,1,1.947,1.74,6.861,6.861,0,0,1,1.136,2.011,6.745,6.745,0,0,1,.372,2.237,6.3,6.3,0,0,1-2,4.7,6.717,6.717,0,0,1-4.85,1.943,8.224,8.224,0,0,1-4.9-1.518,9.533,9.533,0,0,1-3.27-4.554l3.019-.852q1.647,3.732,5.046,3.731a3.939,3.939,0,0,0,2.742-.986,3.213,3.213,0,0,0,1.094-2.49,3.352,3.352,0,0,0-.575-1.807,5.107,5.107,0,0,0-1.423-1.5,15.256,15.256,0,0,0-2.708-1.349,19.082,19.082,0,0,1-2.855-1.394,7.386,7.386,0,0,1-1.734-1.508,6.4,6.4,0,0,1-1.07-1.742,5.034,5.034,0,0,1-.34-1.853,5.2,5.2,0,0,1,1.909-4.049,6.793,6.793,0,0,1,4.631-1.675,9.369,9.369,0,0,1,3.663.784,7.5,7.5,0,0,1,3.088,2.376" transform="translate(-768.313 -178.566)" fill="#484848"/>
    <path id="Path_11" data-name="Path 11" d="M1019.975,66.275V57.589h0l-6.738,13.52h4.855v8.684h0l6.738-13.518Z" transform="translate(-791.197 -0.341)" fill="#317478"/>
    <path id="Path_12" data-name="Path 12" d="M899.924,69.975,899.139,68l-4.1-10.307v0L890.947,68c-.26.658-.524,1.317-.786,1.976a9.621,9.621,0,0,0-.847,5.12A5.921,5.921,0,0,0,892,78.961c.069.042.135.085.206.125a5.539,5.539,0,0,0,5.681,0l.2-.125a5.923,5.923,0,0,0,2.682-3.866,9.624,9.624,0,0,0-.847-5.12" transform="translate(-683.759 -0.431)" fill="#ee6a70"/>
    <path id="Path_13" data-name="Path 13" d="M701.806,68.791c7.79-1.821,9.266-3.3,11.087-11.087,1.819,7.791,3.3,9.266,11.086,11.087-7.79,1.821-9.267,3.3-11.086,11.087-1.821-7.791-3.3-9.266-11.087-11.087" transform="translate(-521.386 -0.441)" fill="#dfa92d"/>
    <rect id="Rectangle_3" data-name="Rectangle 3" width="44.527" height="4.291" transform="translate(100.002 116.048)" fill="#dfa92d"/>
    <rect id="Rectangle_4" data-name="Rectangle 4" width="44.473" height="4.291" transform="translate(144.529 116.048)" fill="#ee6a70"/>
    <rect id="Rectangle_5" data-name="Rectangle 5" width="44.527" height="4.291" transform="translate(189.004 116.048)" fill="#317478"/>
    <path id="Path_14" data-name="Path 14" d="M104.628,579.347a3.143,3.143,0,0,1,.978,2.4,3.181,3.181,0,0,1-.978,2.4,3.666,3.666,0,0,1-2.647.939H100v-6.666h1.981a3.7,3.7,0,0,1,2.647.924m-3.837-.218v5.253h1.18a2.825,2.825,0,0,0,2.061-.742,2.537,2.537,0,0,0,.758-1.893,2.5,2.5,0,0,0-.753-1.895,2.863,2.863,0,0,0-2.066-.723Z" transform="translate(0 -451.575)" fill="#484848"/>
    <path id="Path_15" data-name="Path 15" d="M164.331,579.129h-3.484v2.039h2.666v.709h-2.666v2.5h3.6v.707h-4.394v-6.666h4.273Z" transform="translate(-52.032 -451.576)" fill="#484848"/>
    <path id="Path_16" data-name="Path 16" d="M210.3,577.894a2.458,2.458,0,0,1,.873.818l-.577.435a1.729,1.729,0,0,0-1.525-.838,1.372,1.372,0,0,0-.837.252.833.833,0,0,0-.344.716.97.97,0,0,0,.07.387.854.854,0,0,0,.247.3,2.412,2.412,0,0,0,.318.217c.1.05.242.124.436.219l.738.354a3.73,3.73,0,0,1,1.171.8,1.515,1.515,0,0,1,.382,1.06,1.68,1.68,0,0,1-.6,1.344,2.308,2.308,0,0,1-1.546.515,2.708,2.708,0,0,1-1.418-.385,2.943,2.943,0,0,1-1.036-1.051l.588-.433a2.178,2.178,0,0,0,1.857,1.14,1.479,1.479,0,0,0,.97-.3.984.984,0,0,0,.375-.807.841.841,0,0,0-.258-.657,3.7,3.7,0,0,0-.854-.516l-.747-.354a3.922,3.922,0,0,1-1.105-.745,1.409,1.409,0,0,1-.4-1.041,1.556,1.556,0,0,1,.586-1.26,2.2,2.2,0,0,1,1.425-.479,2.432,2.432,0,0,1,1.217.313" transform="translate(-92.399 -450.846)" fill="#484848"/>
    <rect id="Rectangle_6" data-name="Rectangle 6" width="0.788" height="6.667" transform="translate(121.405 126.848)" fill="#484848"/>
    <path id="Path_17" data-name="Path 17" d="M289.1,577.953a3.251,3.251,0,0,1,1.166,1l-.595.467a2.5,2.5,0,0,0-2.123-1.1,2.533,2.533,0,0,0-1.9.773,2.67,2.67,0,0,0-.747,1.936,2.708,2.708,0,0,0,.763,1.959,2.569,2.569,0,0,0,1.924.787,2.625,2.625,0,0,0,1.3-.322,2.543,2.543,0,0,0,.918-.869v-.9h-2.272v-.709h3.06v1.778a3.29,3.29,0,0,1-1.257,1.257,3.516,3.516,0,0,1-1.793.47,3.367,3.367,0,0,1-2.464-.994,3.494,3.494,0,0,1,.005-4.9,3.54,3.54,0,0,1,4.01-.636" transform="translate(-159.489 -450.858)" fill="#484848"/>
    <path id="Path_18" data-name="Path 18" d="M356.632,577.7v6.778h-.282l-4.242-5.123v5.012h-.789v-6.778h.283l4.242,5.132V577.7Z" transform="translate(-217.734 -450.851)" fill="#484848"/>
    <path id="Path_19" data-name="Path 19" d="M473.79,578.964a1.807,1.807,0,0,1,.579,1.389,1.831,1.831,0,0,1-.579,1.4,2.168,2.168,0,0,1-1.551.545h-1.555v2.79h-.79v-6.666h2.345a2.187,2.187,0,0,1,1.551.541m-3.106.166V581.6h1.534a1.344,1.344,0,0,0,.984-.342,1.168,1.168,0,0,0,.349-.891,1.184,1.184,0,0,0-.349-.89,1.336,1.336,0,0,0-.984-.344Z" transform="translate(-320.464 -451.575)" fill="#484848"/>
    <path id="Path_20" data-name="Path 20" d="M525.072,585.09l-2.07-2.8h-1.426v2.8h-.79v-6.665h2.346a2.187,2.187,0,0,1,1.551.541,1.81,1.81,0,0,1,.581,1.386,1.876,1.876,0,0,1-.375,1.168,1.946,1.946,0,0,1-1.02.682l2.121,2.888Zm-3.5-3.5H523.1a1.37,1.37,0,0,0,.994-.334,1.157,1.157,0,0,0,.349-.887,1.185,1.185,0,0,0-.351-.889,1.364,1.364,0,0,0-.992-.344h-1.525Z" transform="translate(-364.556 -451.577)" fill="#484848"/>
    <rect id="Rectangle_7" data-name="Rectangle 7" width="0.79" height="6.667" transform="translate(163.527 126.848)" fill="#484848"/>
    <path id="Path_21" data-name="Path 21" d="M607.865,577.7v6.778h-.282l-4.242-5.123v5.012h-.788v-6.778h.282l4.242,5.132V577.7Z" transform="translate(-435.396 -450.851)" fill="#484848"/>
    <path id="Path_22" data-name="Path 22" d="M663.692,579.129h-2.353v5.96h-.79v-5.96h-2.344v-.706h5.486Z" transform="translate(-483.612 -451.576)" fill="#484848"/>
    <path id="Path_23" data-name="Path 23" d="M773.473,579.347a3.14,3.14,0,0,1,.981,2.4,3.178,3.178,0,0,1-.981,2.4,3.661,3.661,0,0,1-2.646.939h-1.98v-6.666h1.98a3.7,3.7,0,0,1,2.646.924m-3.836-.218v5.253h1.181a2.826,2.826,0,0,0,2.06-.742,2.541,2.541,0,0,0,.758-1.893,2.5,2.5,0,0,0-.755-1.895,2.857,2.857,0,0,0-2.064-.723Z" transform="translate(-579.468 -451.575)" fill="#484848"/>
    <path id="Path_24" data-name="Path 24" d="M833.162,579.129h-3.485v2.039h2.666v.709h-2.666v2.5h3.605v.707h-4.395v-6.666h4.274Z" transform="translate(-631.486 -451.576)" fill="#484848"/>
    <path id="Path_25" data-name="Path 25" d="M880.06,584.372h3.161v.707h-3.948v-6.667h.787Z" transform="translate(-675.138 -451.566)" fill="#484848"/>
    <rect id="Rectangle_8" data-name="Rectangle 8" width="0.79" height="6.667" transform="translate(210.256 126.848)" fill="#484848"/>
    <path id="Path_26" data-name="Path 26" d="M953.771,578.422l-2.888,6.778h-.294l-2.889-6.778h.871l2.17,5.212,2.163-5.212Z" transform="translate(-734.42 -451.574)" fill="#484848"/>
    <path id="Path_27" data-name="Path 27" d="M1014.223,579.129h-3.484v2.039h2.666v.709h-2.666v2.5h3.6v.707h-4.392v-6.666h4.271Z" transform="translate(-788.354 -451.576)" fill="#484848"/>
    <path id="Path_28" data-name="Path 28" d="M1064.6,585.09l-2.07-2.8H1061.1v2.8h-.788v-6.665h2.343a2.186,2.186,0,0,1,1.551.541,1.81,1.81,0,0,1,.582,1.386,1.876,1.876,0,0,1-.375,1.168,1.936,1.936,0,0,1-1.021.682l2.121,2.888Zm-3.495-3.5h1.525a1.379,1.379,0,0,0,1-.334,1.168,1.168,0,0,0,.348-.887,1.187,1.187,0,0,0-.354-.889,1.36,1.36,0,0,0-.991-.344H1061.1Z" transform="translate(-831.987 -451.577)" fill="#484848"/>
    <path id="Path_29" data-name="Path 29" d="M423.361,595.729a1.284,1.284,0,1,1-.763-1.649,1.284,1.284,0,0,1,.763,1.649" transform="translate(-277.991 -465.072)" fill="#484848"/>
    <path id="Path_30" data-name="Path 30" d="M721.763,595.729a1.283,1.283,0,1,1-.761-1.649,1.284,1.284,0,0,1,.761,1.649" transform="translate(-536.52 -465.072)" fill="#484848"/>
  </g>
</svg>
