<svg xmlns="http://www.w3.org/2000/svg" width="8222.912" height="4282.441" viewBox="0 0 8222.912 4282.441">
  <g id="Group_159" data-name="Group 159" transform="translate(-262.003 -58.515)">
    <path id="Path_11" data-name="Path 11" d="M1993.665,1321V57.589h-.434l-980,1966.5h706.172V3287.212h.3L2699.687,1321Z" transform="translate(5301.945 0.926)" fill="#317478"/>
    <path id="Path_12" data-name="Path 12" d="M2445.444,1844.2l-114.126-287.4L1735.607,57.692v0l-595.85,1499.1c-37.843,95.7-76.27,191.543-114.248,287.4C934.459,2072.847,857.6,2333.662,902.332,2588.92c42.519,243.264,202.215,440.815,390.265,562.233,10.085,6.124,19.576,12.419,29.967,18.251,126.66,74.966,269.428,113.975,413.044,113.975,143.353,0,285.956-39.009,413.188-113.975,9.518-5.832,19.591-12.127,29.694-18.251,187.9-121.418,347.585-318.969,390.117-562.233,44.7-255.258-32.14-516.073-123.162-744.721" transform="translate(3015.699 2.973)" fill="#ee6a70"/>
    <path id="Path_13" data-name="Path 13" d="M701.806,1670.315C1834.9,1405.416,2049.545,1190.938,2314.43,57.7c264.625,1133.234,479.43,1347.712,1612.521,1612.611-1133.091,264.9-1347.9,479.4-1612.521,1612.629C2049.545,2149.711,1834.9,1935.211,701.806,1670.315" transform="translate(-439.784 3.098)" fill="#dfa92d"/>
    <rect id="Rectangle_3" data-name="Rectangle 3" width="2742.047" height="264.276" transform="translate(262.003 4076.68)" fill="#dfa92d"/>
    <rect id="Rectangle_4" data-name="Rectangle 4" width="2738.706" height="264.276" transform="translate(3003.999 4076.68)" fill="#ee6a70"/>
    <rect id="Rectangle_5" data-name="Rectangle 5" width="2742.047" height="264.276" transform="translate(5742.868 4076.68)" fill="#317478"/>
  </g>
</svg>
