<svg xmlns="http://www.w3.org/2000/svg" width="133.629" height="63.145" viewBox="0 0 133.629 63.145">
    <g id="Group_159" data-name="Group 159" transform="translate(-100.003 -57.195)">
        <path id="Path_1" data-name="Path 1" d="M116.081,61.514l-3.8,2.858a6.217,6.217,0,0,0-1.617-1.722,3.5,3.5,0,0,0-1.985-.554q-1.945,0-1.947,1.364a1.24,1.24,0,0,0,.413.961,5.284,5.284,0,0,0,1.471.794l2.511,1.039a11.6,11.6,0,0,1,4.214,2.678,5.419,5.419,0,0,1,1.37,3.782,5.921,5.921,0,0,1-2.261,4.886,8.927,8.927,0,0,1-5.735,1.8,10.373,10.373,0,0,1-5.223-1.3,8.783,8.783,0,0,1-3.47-3.509l3.833-2.857a6.008,6.008,0,0,0,4.859,2.761q2.244,0,2.245-1.558a1.268,1.268,0,0,0-.462-1.072,8.929,8.929,0,0,0-1.753-.909l-2.245-.973q-5.518-2.372-5.519-6.461a5.621,5.621,0,0,1,2.132-4.593,8.413,8.413,0,0,1,5.5-1.739q5.255,0,7.468,4.319" transform="translate(-0.017)" fill="#317478"/>
        <path id="Path_2" data-name="Path 2" d="M257.446,62.786H250.9V79.738h-5.684V62.786h-6.544v-5.2h18.771Z" transform="translate(-120.144 -0.336)" fill="#317478"/>
        <path id="Path_3" data-name="Path 3" d="M372.477,77.59h-7.834l-.794,1.817h-6.112L367.651,57.2h1.817l9.915,22.206H373.27Zm-3.9-9.617L366.66,73.03h3.8Z" transform="translate(-223.296 -0.005)" fill="#317478"/>
        <path id="Path_4" data-name="Path 4" d="M552.865,79.4l-4.924-6.9H545.6v6.9h-5.685V57.195h8.559a8.836,8.836,0,0,1,6.047,2.087,7.591,7.591,0,0,1-1.058,11.877l5.752,8.244ZM545.6,67.458h2.909a2.536,2.536,0,0,0,1.9-.724,2.588,2.588,0,0,0,.712-1.9,2.441,2.441,0,0,0-2.61-2.592H545.6Z" transform="translate(-381.125)" fill="#317478"/>
        <path id="Path_5" data-name="Path 5" d="M100.014,268.506h12.25v3.02H103v5.516h9.266v2.984H103v7.6h9.266v2.984h-12.25Z" transform="translate(-0.012 -183.073)" fill="#317478"/>
        <path id="Path_6" data-name="Path 6" d="M218.544,268.51H223.9q6.368,0,9.472,3.365a11.015,11.015,0,0,1,3.107,7.686,10.8,10.8,0,0,1-3.211,7.7q-3.21,3.348-9.332,3.349h-5.4Zm3.019,2.948v16.169h.173a31.376,31.376,0,0,0,5.066-.3A8.426,8.426,0,0,0,230.027,286a7.378,7.378,0,0,0,2.431-2.715,7.8,7.8,0,0,0,.9-3.72,7.888,7.888,0,0,0-1.44-4.614,7.116,7.116,0,0,0-3.444-2.778,16.6,16.6,0,0,0-5.385-.711Z" transform="translate(-102.702 -183.077)" fill="#317478"/>
        <rect id="Rectangle_1" data-name="Rectangle 1" width="2.984" height="22.101" transform="translate(137.214 85.432)" fill="#317478"/>
        <path id="Path_7" data-name="Path 7" d="M427.031,268.506h13.513v3.02h-5.272v19.082h-2.987V271.525h-5.255Z" transform="translate(-283.329 -183.073)" fill="#317478"/>
        <rect id="Rectangle_2" data-name="Rectangle 2" width="2.984" height="22.101" transform="translate(160.564 85.432)" fill="#317478"/>
        <path id="Path_8" data-name="Path 8" d="M605.022,274.923a10.893,10.893,0,0,1,3.607-8.2,12.172,12.172,0,0,1,8.672-3.415,11.856,11.856,0,0,1,8.52,3.442,10.962,10.962,0,0,1,3.573,8.172,11.41,11.41,0,0,1-3.528,8.469,12.5,12.5,0,0,1-17.29-.026,11.385,11.385,0,0,1-3.555-8.443m21.164.14a8.166,8.166,0,0,0-2.637-6.161,9.066,9.066,0,0,0-6.489-2.5,8.656,8.656,0,0,0-6.273,2.55,8.24,8.24,0,0,0-2.609,6.116,8.063,8.063,0,0,0,2.68,6.127,9.252,9.252,0,0,0,6.567,2.5,8.489,8.489,0,0,0,6.166-2.555,8.243,8.243,0,0,0,2.595-6.077" transform="translate(-437.535 -178.57)" fill="#317478"/>
        <path id="Path_9" data-name="Path 9" d="M815.587,261.891l16.34,16.8V262.775h3.019V285.9L818.6,269.176v15.7h-3.017Z" transform="translate(-619.962 -177.343)" fill="#317478"/>
        <path id="Path_10" data-name="Path 10" d="M1001.306,266.463l-2.446,1.959a9.891,9.891,0,0,0-1.757-1.5,4.33,4.33,0,0,0-2.276-.493,4.381,4.381,0,0,0-2.64.735,2.25,2.25,0,0,0-1.013,1.895,2.3,2.3,0,0,0,.885,1.772,12.13,12.13,0,0,0,3.014,1.686,21.38,21.38,0,0,1,3.316,1.7,8.38,8.38,0,0,1,1.947,1.74,6.861,6.861,0,0,1,1.136,2.011,6.745,6.745,0,0,1,.372,2.237,6.3,6.3,0,0,1-2,4.7,6.717,6.717,0,0,1-4.85,1.943,8.224,8.224,0,0,1-4.9-1.518,9.533,9.533,0,0,1-3.27-4.554l3.019-.852q1.647,3.732,5.046,3.731a3.939,3.939,0,0,0,2.742-.986,3.213,3.213,0,0,0,1.094-2.49,3.352,3.352,0,0,0-.575-1.807,5.107,5.107,0,0,0-1.423-1.5,15.256,15.256,0,0,0-2.708-1.349,19.082,19.082,0,0,1-2.855-1.394,7.386,7.386,0,0,1-1.734-1.508,6.4,6.4,0,0,1-1.07-1.742,5.034,5.034,0,0,1-.34-1.853,5.2,5.2,0,0,1,1.909-4.049,6.793,6.793,0,0,1,4.631-1.675,9.369,9.369,0,0,1,3.663.784,7.5,7.5,0,0,1,3.088,2.376" transform="translate(-768.313 -178.566)" fill="#317478"/>
        <path id="Path_11" data-name="Path 11" d="M1019.975,66.275V57.589h0l-6.738,13.52h4.855v8.684h0l6.738-13.518Z" transform="translate(-791.197 -0.341)" fill="#317478"/>
        <path id="Path_12" data-name="Path 12" d="M899.924,69.975,899.139,68l-4.1-10.307v0L890.947,68c-.26.658-.524,1.317-.786,1.976a9.621,9.621,0,0,0-.847,5.12A5.921,5.921,0,0,0,892,78.961c.069.042.135.085.206.125a5.539,5.539,0,0,0,5.681,0l.2-.125a5.923,5.923,0,0,0,2.682-3.866,9.624,9.624,0,0,0-.847-5.12" transform="translate(-683.759 -0.431)" fill="#ee6a70"/>
        <path id="Path_13" data-name="Path 13" d="M701.806,68.791c7.79-1.821,9.266-3.3,11.087-11.087,1.819,7.791,3.3,9.266,11.086,11.087-7.79,1.821-9.267,3.3-11.086,11.087-1.821-7.791-3.3-9.266-11.087-11.087" transform="translate(-521.386 -0.441)" fill="#dfa92d"/>
        <rect id="Rectangle_3" data-name="Rectangle 3" width="44.527" height="4.291" transform="translate(100.003 116.048)" fill="#dfa92d"/>
        <rect id="Rectangle_4" data-name="Rectangle 4" width="44.473" height="4.291" transform="translate(144.529 116.048)" fill="#ee6a70"/>
        <rect id="Rectangle_5" data-name="Rectangle 5" width="44.527" height="4.291" transform="translate(189.005 116.048)" fill="#317478"/>
    </g>
</svg>